# xmcd
#
# Track frame offsets:
#	150
#	20157
#	43478
#	65020
#	95371
#	115102
#	153969
#	177876
#	196435
#	217261
#	234969
#	258085
#	278251
#
# Disc length: 3935 seconds
#
# Revision: 0
# Processed by: cddbd v1.5.2PL0 Copyright (c) Steve Scherf et al.
# Submitted via: EasyCDDAExtractor 16.0.9.1
#
DISCID=b40f5d0d
DTITLE=Various Artist - Xuân Họp Mặt
DYEAR=2005
DGENRE=Pop
TTITLE0=Như Quỳnh, Loan Châu, Thủy Tiên, Bảo Hân - Xuân Họp Mặt
TTITLE1=Như Quỳnh - Câu Chuyện Đầu Năm
TTITLE2=Quang Lê - Xuân Này Con Về Mẹ Ở Đâu
TTITLE3=Hoàng Oanh and Trung Chỉnh - Ai Lên Xứ Hoa Đào and Bài Thơ Hoa Đào
TTITLE4=Hương Thủy - Đêm Giao Thừa Nghe Một Khúc Dân Ca
TTITLE5=Mạnh Quỳnh and Phi Nhung - Đón Xuân Này Nhớ Xuân Xưa
TTITLE6=Hương Lan - Gác Nhỏ Đêm Xuân
TTITLE7=Khánh Ly - Xuân Thì
TTITLE8=Thế Sơn - Phiên Gác Đêm Xuân
TTITLE9=Loan Châu - Du Xuân
TTITLE10=Nguyễn Hưng - Tôi Chưa Có Mùa Xuân
TTITLE11=Tường Nguyên - Xuân Nào Con Về
TTITLE12=Hợp Ca - Ly Rượu Mừng
EXTD=
EXTT0=
EXTT1=
EXTT2=
EXTT3=
EXTT4=
EXTT5=
EXTT6=
EXTT7=
EXTT8=
EXTT9=
EXTT10=
EXTT11=
EXTT12=
PLAYORDER=
